<?xml version="1.0" standalone="no"?>
<!DOCTYPE svg PUBLIC "-//W3C//DTD SVG 20010904//EN"
 "http://www.w3.org/TR/2001/REC-SVG-20010904/DTD/svg10.dtd">
<svg version="1.0" xmlns="http://www.w3.org/2000/svg"
 width="176.000000pt" height="176.000000pt" viewBox="0 0 176.000000 176.000000"
 preserveAspectRatio="xMidYMid meet">
<metadata>
Created by potrace 1.11, written by Peter Selinger 2001-2013
</metadata>
<g transform="translate(0.000000,176.000000) scale(0.100000,-0.100000)"
fill="#000000" stroke="none">
<path d="M880 1570 c-19 -11 -43 -19 -52 -20 -9 0 -30 -11 -45 -24 -16 -14
-48 -31 -70 -38 -35 -10 -48 -24 -92 -90 -28 -42 -53 -88 -56 -100 -33 -151
-34 -177 -4 -259 15 -40 40 -80 72 -115 70 -77 101 -96 150 -96 23 1 52 -6 65
-14 13 -9 39 -16 57 -17 18 -1 31 -5 29 -9 -3 -4 2 -10 10 -15 20 -12 116
-129 116 -142 0 -6 4 -11 8 -11 5 0 9 -23 11 -50 1 -38 -2 -52 -13 -56 -9 -3
-14 -10 -11 -15 3 -4 -4 -13 -15 -19 -28 -15 -87 12 -164 75 -31 25 -60 45
-66 45 -5 0 -10 5 -10 10 0 6 -6 10 -14 10 -8 0 -27 13 -42 29 -23 25 -33 29
-58 24 -62 -13 -125 -53 -145 -91 -19 -37 -19 -38 0 -62 10 -14 25 -45 34 -70
8 -25 29 -61 46 -79 16 -19 37 -44 46 -57 20 -32 115 -75 165 -76 32 0 46 6
74 33 l34 33 31 -18 c28 -17 36 -17 73 -5 40 13 75 43 76 65 0 7 12 20 28 30
33 21 85 77 100 107 6 12 19 49 28 82 l17 60 14 -70 c7 -38 18 -74 25 -80 7
-5 26 -28 42 -50 35 -47 67 -80 79 -80 5 0 24 -15 43 -34 32 -33 37 -35 101
-33 37 1 79 4 94 7 17 4 30 1 39 -10 7 -8 16 -15 21 -15 5 0 9 62 9 138 l0
138 -32 -3 c-39 -4 -88 23 -104 58 -22 48 -33 89 -22 83 6 -4 8 -2 4 4 -3 6
-9 37 -11 69 -3 32 -8 79 -10 104 -3 26 1 75 9 110 8 34 13 66 11 70 -6 8 -14
119 -19 242 -2 48 -6 90 -9 93 -3 3 1 20 8 37 19 49 8 104 -19 94 -6 -3 -20 1
-31 9 -28 21 -59 17 -108 -12 -50 -31 -63 -55 -72 -144 -3 -36 -10 -81 -15
-100 -18 -68 -31 -182 -44 -383 -3 -42 -16 -81 -16 -47 0 16 -131 150 -147
150 -7 0 -13 5 -13 10 0 6 -6 10 -14 10 -8 0 -16 5 -18 10 -2 6 -13 12 -25 13
-12 0 -20 3 -18 6 6 6 -40 45 -105 89 -53 35 -110 89 -110 104 0 4 -10 24 -22
45 -21 35 -33 117 -15 106 4 -2 19 10 33 27 33 38 72 38 90 0 7 -14 18 -38 25
-54 8 -16 28 -35 46 -44 17 -8 34 -23 36 -33 3 -11 14 -19 26 -19 11 0 25 -8
30 -17 9 -16 14 -14 48 20 25 25 32 37 22 37 -13 0 -15 7 -10 33 18 84 -72
222 -172 265 -36 16 -45 15 -87 -8z"/>
</g>
</svg>
